<?xml version="1.0" standalone="no"?><!DOCTYPE svg PUBLIC "-//W3C//DTD SVG 1.1//EN" "http://www.w3.org/Graphics/SVG/1.1/DTD/svg11.dtd"><svg t="1594191325770" class="icon" viewBox="0 0 1024 1024" version="1.1" xmlns="http://www.w3.org/2000/svg" p-id="2210" xmlns:xlink="http://www.w3.org/1999/xlink" width="200" height="200"><defs><style type="text/css"></style></defs><path d="M554.666667 810.666667h-85.333334a212.138667 212.138667 0 0 1-119.125333-36.437334l40.832-6.826666a42.666667 42.666667 0 1 0-14.08-84.138667l-94.037333 15.658667a210.602667 210.602667 0 0 1-24.661334-79.317334l118.698667 19.797334a42.666667 42.666667 0 0 0 14.08-84.138667L256 532.736V512c0-117.632 95.701333-213.333333 213.333333-213.333333h85.333334c117.632 0 213.333333 95.701333 213.333333 213.333333v20.736l-135.04 22.528a42.666667 42.666667 0 1 0 14.08 84.138667l118.698667-19.797334a210.602667 210.602667 0 0 1-24.661334 79.317334l-94.037333-15.658667a42.666667 42.666667 0 1 0-14.08 84.138667l40.832 6.826666A212.138667 212.138667 0 0 1 554.666667 810.666667zM323.029333 251.904a300.544 300.544 0 0 0-87.381333 74.624l-13.909333-125.312 101.290666 50.688z m479.232-50.688l-13.909333 125.312a300.544 300.544 0 0 0-87.381333-74.624l101.290666-50.688z m100.778667 524.714667a42.666667 42.666667 0 1 1-14.08 84.138666l-108.288-18.048A297.941333 297.941333 0 0 1 554.666667 896h-85.333334a297.941333 297.941333 0 0 1-226.005333-103.978667l-108.288 18.048a42.666667 42.666667 0 0 1-14.08-84.138666l73.344-12.202667a297.386667 297.386667 0 0 1-23.253333-108.629333l-50.090667-8.362667a42.666667 42.666667 0 1 1 14.08-84.138667l35.626667 5.930667v-4.266667L128.256 132.693333a42.581333 42.581333 0 0 1 61.482667-42.88l250.026666 125.013334A307.626667 307.626667 0 0 1 469.333333 213.333333h85.333334c9.984 0 19.84 0.554667 29.568 1.493334l250.026666-125.013334a42.581333 42.581333 0 0 1 61.482667 42.88L853.333333 514.261333v4.266667l35.626667-5.930667a42.666667 42.666667 0 1 1 14.08 84.138667l-50.090667 8.362667a297.386667 297.386667 0 0 1-23.253333 108.629333l73.344 12.202667zM426.666667 426.666667a42.666667 42.666667 0 1 0 0 85.333333 42.666667 42.666667 0 0 0 0-85.333333z m213.333333 42.666666a42.666667 42.666667 0 1 0-85.333333 0 42.666667 42.666667 0 0 0 85.333333 0z m-128 85.333334a42.666667 42.666667 0 1 0 0 85.333333 42.666667 42.666667 0 0 0 0-85.333333z" fill="currentColor" p-id="2211"></path></svg>