<?xml version="1.0" standalone="no"?><!DOCTYPE svg PUBLIC "-//W3C//DTD SVG 1.1//EN" "http://www.w3.org/Graphics/SVG/1.1/DTD/svg11.dtd"><svg t="1594172475686" class="icon" viewBox="0 0 1024 1024" version="1.1" xmlns="http://www.w3.org/2000/svg" p-id="38827" xmlns:xlink="http://www.w3.org/1999/xlink" width="200" height="200"><defs><style type="text/css"></style></defs><path d="M786.285714 73.142857q68 0 116.285715 48.285714T950.857143 237.714286v548.571428q0 68-48.285714 116.285715T786.285714 950.857143h-107.428571v-340h113.714286l17.142857-132.571429h-130.857143V393.714286q0-32 13.428571-48t52.285715-16l69.714285-0.571429V210.857143q-36-5.142857-101.714285-5.142857-77.714286 0-124.285715 45.714285T541.714286 380.571429v97.714285H427.428571v132.571429h114.285715v340H237.714286q-68 0-116.285715-48.285714T73.142857 786.285714V237.714286q0-68 48.285714-116.285715T237.714286 73.142857h548.571428z" p-id="38828" fill="currentColor"></path></svg>