<?xml version="1.0" standalone="no"?><!DOCTYPE svg PUBLIC "-//W3C//DTD SVG 1.1//EN" "http://www.w3.org/Graphics/SVG/1.1/DTD/svg11.dtd"><svg t="1594172301800" class="icon" viewBox="0 0 1024 1024" version="1.1" xmlns="http://www.w3.org/2000/svg" p-id="35150" xmlns:xlink="http://www.w3.org/1999/xlink" width="200" height="200"><defs><style type="text/css"></style></defs><path d="M587.946667 403.626667a16.213333 16.213333 0 0 0-16.213334 16.213333v71.253333L512 411.733333a17.066667 17.066667 0 0 0-14.08-8.106666 16.213333 16.213333 0 0 0-16.213333 16.213333v121.173333a16.213333 16.213333 0 0 0 16.213333 16.213334 16.213333 16.213333 0 0 0 16.213333-16.213334V469.333333l59.306667 81.493334a11.52 11.52 0 0 0 6.4 4.693333 13.653333 13.653333 0 0 0 5.973333 0A14.08 14.08 0 0 0 597.333333 554.666667l4.266667-2.986667a16.64 16.64 0 0 0 4.693333-11.52V419.84a16.213333 16.213333 0 0 0-18.346666-16.213333zM392.533333 523.52H347.306667V419.84a16.213333 16.213333 0 0 0-16.213334-16.213333 16.213333 16.213333 0 0 0-16.213333 16.213333v121.173333a16.213333 16.213333 0 0 0 16.213333 16.213334H392.533333a16.64 16.64 0 0 0 16.64-16.213334 16.64 16.64 0 0 0-16.64-17.493333z m47.36-119.893333a16.64 16.64 0 0 0-16.64 16.213333v121.173333a16.64 16.64 0 0 0 16.64 16.213334 16.213333 16.213333 0 0 0 16.213334-16.213334V419.84a16.213333 16.213333 0 0 0-16.213334-16.213333zM764.16 85.333333H259.84A174.933333 174.933333 0 0 0 85.333333 259.84v504.32A174.933333 174.933333 0 0 0 259.84 938.666667h504.32A174.933333 174.933333 0 0 0 938.666667 764.16V259.84A174.933333 174.933333 0 0 0 764.16 85.333333z m13.226667 523.946667a66.133333 66.133333 0 0 1-5.546667 7.253333 234.666667 234.666667 0 0 1-34.133333 34.133334c-85.333333 79.786667-228.693333 175.36-247.893334 160.426666s27.306667-75.093333-22.613333-85.333333a42.666667 42.666667 0 0 1-10.666667 0c-146.773333-20.48-256-123.306667-256-246.613333 0-138.666667 140.373333-250.88 313.173334-250.88s313.173333 112.213333 313.173333 250.88a213.333333 213.333333 0 0 1-49.493333 130.133333z m-72.96-205.226667H640a16.213333 16.213333 0 0 0-16.213333 16.213334v121.173333a16.213333 16.213333 0 0 0 16.213333 16.213333h63.146667a16.213333 16.213333 0 0 0 16.213333-16.213333 16.213333 16.213333 0 0 0-16.213333-16.213333h-43.946667v-25.6h45.226667a16.64 16.64 0 0 0 16.213333-16.64 16.213333 16.213333 0 0 0-16.213333-16.213334h-45.226667v-26.026666h45.226667a16.213333 16.213333 0 0 0 16.213333-16.213334 16.213333 16.213333 0 0 0-16.213333-20.48z" p-id="35151" fill="currentColor"></path></svg>