<?xml version="1.0" standalone="no"?><!DOCTYPE svg PUBLIC "-//W3C//DTD SVG 1.1//EN" "http://www.w3.org/Graphics/SVG/1.1/DTD/svg11.dtd"><svg t="1594173760096" class="icon" viewBox="0 0 1026 1024" version="1.1" xmlns="http://www.w3.org/2000/svg" p-id="1624" xmlns:xlink="http://www.w3.org/1999/xlink" width="200.390625" height="200"><defs><style type="text/css"></style></defs><path d="M460.8 887.466667H17.066667c-10.24 0-17.066667-6.826667-17.066667-17.066667v-341.333333c0-126.293333 112.64-238.933333 238.933333-238.933334s238.933333 112.64 238.933334 238.933334v341.333333c0 10.24-6.826667 17.066667-17.066667 17.066667zM34.133333 853.333333h409.6v-324.266666c0-109.226667-95.573333-204.8-204.8-204.8s-204.8 95.573333-204.8 204.8V853.333333zM1006.933333 614.4c-10.24 0-17.066667-6.826667-17.066666-17.066667v-273.066666c0-109.226667-95.573333-204.8-204.8-204.8-10.24 0-17.066667-6.826667-17.066667-17.066667s6.826667-17.066667 17.066667-17.066667c126.293333 0 238.933333 112.64 238.933333 238.933334v273.066666c0 10.24-6.826667 17.066667-17.066667 17.066667z" fill="currentColor" p-id="1625"></path><path d="M221.866667 324.266667c-6.826667 0-13.653333-3.413333-17.066667-10.24-3.413333-10.24 0-17.066667 10.24-20.48l221.866667-78.506667c10.24-3.413333 17.066667 0 20.48 10.24 3.413333 10.24 0 17.066667-10.24 20.48L228.693333 324.266667h-6.826666zM460.8 887.466667c-6.826667 0-13.653333-3.413333-13.653333-10.24-3.413333-6.826667 0-17.066667 6.826666-23.893334l546.133334-273.066666c6.826667-3.413333 17.066667 0 23.893333 6.826666s0 17.066667-6.826667 23.893334l-546.133333 273.066666c-3.413333 3.413333-6.826667 3.413333-10.24 3.413334zM392.533333 1024c-10.24 0-17.066667-6.826667-17.066666-17.066667v-136.533333c0-10.24 6.826667-17.066667 17.066666-17.066667s17.066667 6.826667 17.066667 17.066667v136.533333c0 10.24-6.826667 17.066667-17.066667 17.066667z" fill="currentColor" p-id="1626"></path><path d="M529.066667 1024c-10.24 0-17.066667-6.826667-17.066667-17.066667v-170.666666c0-10.24 6.826667-17.066667 17.066667-17.066667s17.066667 6.826667 17.066666 17.066667v170.666666c0 10.24-6.826667 17.066667-17.066666 17.066667zM631.466667 1024c-10.24 0-17.066667-6.826667-17.066667-17.066667V785.066667c0-10.24 6.826667-17.066667 17.066667-17.066667s17.066667 6.826667 17.066666 17.066667v221.866666c0 10.24-6.826667 17.066667-17.066666 17.066667zM529.066667 546.133333c-10.24 0-17.066667-6.826667-17.066667-17.066666v-477.866667c0-6.826667 6.826667-13.653333 13.653333-17.066667l170.666667-34.133333c3.413333 0 10.24 0 13.653333 3.413333 3.413333 3.413333 6.826667 6.826667 6.826667 13.653334v136.533333c0 6.826667-6.826667 13.653333-13.653333 17.066667l-157.013334 30.72v327.68c0 10.24-6.826667 17.066667-17.066666 17.066666zM546.133333 64.853333v102.4l136.533334-27.306666v-102.4l-136.533334 27.306666zM290.133333 785.066667c-3.413333 0-6.826667 0-10.24-3.413334-3.413333-3.413333-6.826667-6.826667-6.826666-13.653333v-238.933333c0-6.826667 3.413333-13.653333 10.24-13.653334l68.266666-34.133333c6.826667-3.413333 17.066667 0 23.893334 6.826667 3.413333 6.826667 0 17.066667-6.826667 23.893333l-61.44 27.306667v201.386666l44.373333-20.48c6.826667-3.413333 17.066667 0 23.893334 6.826667 3.413333 6.826667 0 17.066667-6.826667 23.893333l-68.266667 34.133334h-10.24zM119.466667 785.066667c-3.413333 0-6.826667 0-10.24-3.413334-3.413333-3.413333-6.826667-6.826667-6.826667-13.653333v-238.933333c0-6.826667 3.413333-13.653333 10.24-13.653334l68.266667-34.133333c6.826667-3.413333 17.066667 0 23.893333 6.826667 3.413333 6.826667 0 17.066667-6.826667 23.893333l-61.44 27.306667v201.386666l44.373334-20.48c6.826667-3.413333 17.066667 0 23.893333 6.826667s0 17.066667-6.826667 23.893333l-68.266666 34.133334h-10.24z" fill="currentColor" p-id="1627"></path></svg>