<?xml version="1.0" standalone="no"?><!DOCTYPE svg PUBLIC "-//W3C//DTD SVG 1.1//EN" "http://www.w3.org/Graphics/SVG/1.1/DTD/svg11.dtd"><svg t="1594171733501" class="icon" viewBox="0 0 1024 1024" version="1.1" xmlns="http://www.w3.org/2000/svg" p-id="20793" xmlns:xlink="http://www.w3.org/1999/xlink" width="200" height="200"><defs><style type="text/css"></style></defs><path d="M302.129493 196.11136c0.140516 0 0.279893 0.018773 0.420409 0.018773h258.024107c9.568142 0 17.319253-7.751111 17.319253-17.314702 0-9.565867-7.751111-17.314133-17.319253-17.314133H302.549902c-9.563591 0-17.316978 7.748267-17.316978 17.314133 0 9.421369 7.530951 17.070649 16.896569 17.295929zM302.549902 282.959076h426.337849c9.565298 0 17.318684-7.753387 17.318685-17.316409 0-9.565298-7.753387-17.316409-17.318685-17.316409H302.549902c-9.563591 0-17.316978 7.751111-17.316978 17.316409 0 9.563022 7.753956 17.316409 17.316978 17.316409zM302.549902 369.782898h426.337849c9.565298 0 17.318684-7.755662 17.318685-17.319254 0-5.047182-2.174293-9.572693-5.618916-12.736853-3.085653-2.834204-7.182222-4.57728-11.699769-4.57728H302.549902c-4.51584 0-8.614684 1.743076-11.700338 4.57728-3.444053 3.16416-5.61664 7.689671-5.61664 12.736853 0 9.563591 7.753956 17.319253 17.316978 17.319254zM746.206436 439.292587c0-9.560747-7.753387-17.314702-17.318685-17.314703H302.549902c-9.563591 0-17.316978 7.753387-17.316978 17.314703 0 9.565867 7.753387 17.319253 17.316978 17.319253h426.337849c9.565867 0 17.318684-7.753387 17.318685-17.319253z" p-id="20794" fill="currentColor"></path><path d="M1008.121173 303.50848a17.275449 17.275449 0 0 0-5.46304-4.90496l-140.204942-79.622258V166.505813a17.109333 17.109333 0 0 0-6.488747-10.846435l-28.140088-24.368356-74.565974-64.57344-35.207964-30.490169c-3.007147-2.606649-6.750436-3.994169-10.576214-4.138666H218.308836c-27.198009 0-49.325511 22.126933-49.325512 49.320391V217.400889L35.017387 293.485796c-18.021262 6.5792-30.94528 23.84384-30.94528 44.111644v607.313351c0 25.915164 21.085298 47.000462 47.002737 47.000462h924.78464c25.91744 0 47.003307-21.085298 47.003307-47.000462V337.59744c-0.000569-13.422364-5.68832-25.514667-14.741618-34.08896z m-89.69216-12.912071l52.667165 29.913884-6.633814 4.722347-102.009173 72.626631v-139.047822l55.975822 31.78496zM799.573333 152.151609h-75.602489V86.67648L799.573333 152.151609zM203.617849 325.23264V81.409138c0-8.100409 6.590578-14.691556 14.690987-14.691556h471.392711v102.568391c0 9.461191 7.670329 17.129244 17.134364 17.129245h120.987876V422.513778l-226.018418 160.9216-28.888747 20.564195-10.576213 7.532658-46.130062 32.840818-46.132907-32.840818-10.587591-7.537778-28.889316-20.568177-226.982684-161.604836V325.23264zM110.227911 290.596409l58.755413-33.364765V397.164089L67.95264 325.23264l-8.304071-5.9136 50.579342-28.722631zM38.704924 938.088676V346.92096l130.2784 92.755627 34.633956 24.65792L404.309333 607.220622l-4.762737 4.312178-38.267449 34.628836-322.574223 291.92704z m30.412232 19.193742l343.776142-311.120782 20.305351-18.377387 25.810489 18.377387 47.159182 33.580373a17.288533 17.288533 0 0 0 10.042596 3.206827 17.291947 17.291947 0 0 0 10.042026-3.206827l47.154631-33.580373 25.801387-18.367147 20.301369 18.367147 343.785813 311.120782H69.117156z m919.110542-24.150471l-317.104356-286.969743-38.267449-34.628835-4.755342-4.302507 199.723805-142.200604 34.628835-24.660196 125.774507-89.547093v582.308978z" p-id="20795" fill="currentColor"></path></svg>