<?xml version="1.0" standalone="no"?><!DOCTYPE svg PUBLIC "-//W3C//DTD SVG 1.1//EN" "http://www.w3.org/Graphics/SVG/1.1/DTD/svg11.dtd"><svg t="1594171442841" class="icon" viewBox="0 0 1025 1024" version="1.1" xmlns="http://www.w3.org/2000/svg" p-id="7010" xmlns:xlink="http://www.w3.org/1999/xlink" width="200.1953125" height="200"><defs><style type="text/css"></style></defs><path d="M1006.933333 853.333333H443.733333c-10.24 0-17.066667-6.826667-17.066666-17.066666s6.826667-17.066667 17.066666-17.066667h546.133334V238.933333H563.2c-10.24 0-17.066667-6.826667-17.066667-17.066666s6.826667-17.066667 17.066667-17.066667h443.733333c10.24 0 17.066667 6.826667 17.066667 17.066667v614.4c0 10.24-6.826667 17.066667-17.066667 17.066666z" fill="currentColor" p-id="7011"></path><path d="M1006.933333 750.933333c-3.413333 0-10.24 0-13.653333-3.413333l-191.146667-191.146667-88.746666 88.746667c-6.826667 6.826667-17.066667 6.826667-23.893334 0l-122.88-122.88-122.88 122.88c-6.826667 6.826667-17.066667 6.826667-23.893333 0s-6.826667-17.066667 0-23.893333l136.533333-136.533334c6.826667-6.826667 17.066667-6.826667 23.893334 0l122.88 122.88 88.746666-88.746666c6.826667-6.826667 17.066667-6.826667 23.893334 0l204.8 204.8c6.826667 6.826667 6.826667 17.066667 0 23.893333-3.413333 3.413333-10.24 3.413333-13.653334 3.413333z" fill="currentColor" p-id="7012"></path><path d="M382.293333 1024c-30.72 0-61.44-6.826667-88.746666-17.066667l-228.693334-102.4C27.306667 890.88 0 853.333333 0 812.373333V208.213333c0-44.373333 30.72-85.333333 71.68-98.986666L354.986667 23.893333c61.44-17.066667 109.226667-23.893333 163.84-23.893333 34.133333 0 61.44 27.306667 61.44 61.44v232.106667c0 27.306667-17.066667 47.786667-40.96 58.026666l-78.506667 20.48c-10.24 3.413333-17.066667 13.653333-17.066667 23.893334v573.44c0 27.306667-27.306667 54.613333-61.44 54.613333z m-17.066666-965.973333L81.92 143.36c-27.306667 6.826667-47.786667 34.133333-47.786667 64.853333v604.16c0 27.306667 17.066667 54.613333 44.373334 64.853334l228.693333 102.4c23.893333 10.24 47.786667 13.653333 75.093333 13.653333 13.653333 0 27.306667-10.24 27.306667-27.306667V392.533333c0-27.306667 17.066667-47.786667 40.96-58.026666l78.506667-20.48c10.24-3.413333 17.066667-13.653333 17.066666-23.893334V58.026667c0-13.653333-10.24-23.893333-27.306666-23.893334-51.2 0-95.573333 6.826667-153.6 23.893334z" fill="currentColor" p-id="7013"></path><path d="M699.733333 232.106667c-10.24 0-17.066667-6.826667-17.066666-17.066667V170.666667c0-37.546667-30.72-68.266667-68.266667-68.266667h-44.373333c-10.24 0-17.066667-6.826667-17.066667-17.066667s10.24-17.066667 17.066667-17.066666H614.4c58.026667 0 102.4 44.373333 102.4 102.4v44.373333c0 6.826667-6.826667 17.066667-17.066667 17.066667zM614.4 921.6h-170.666667c-10.24 0-17.066667-6.826667-17.066666-17.066667s6.826667-17.066667 17.066666-17.066666h170.666667c20.48 0 68.266667-3.413333 68.266667-51.2 0-10.24 6.826667-17.066667 17.066666-17.066667s17.066667 6.826667 17.066667 17.066667c0 51.2-40.96 85.333333-102.4 85.333333z" fill="currentColor" p-id="7014"></path><path d="M819.2 443.733333c-37.546667 0-68.266667-30.72-68.266667-68.266666s30.72-68.266667 68.266667-68.266667 68.266667 30.72 68.266667 68.266667-30.72 68.266667-68.266667 68.266666z m0-102.4c-20.48 0-34.133333 13.653333-34.133333 34.133334s13.653333 34.133333 34.133333 34.133333 34.133333-13.653333 34.133333-34.133333-13.653333-34.133333-34.133333-34.133334z" fill="currentColor" p-id="7015"></path></svg>