<svg t="1594372186009" class="icon" viewBox="0 0 1024 1024" version="1.1" xmlns="http://www.w3.org/2000/svg" p-id="10959" width="200" height="200"><path d="M478.08 554.24a75.2 75.2 0 0 0-106.24-8.32L194.56 697.6a437.44 437.44 0 0 1 10.88-64 80 80 0 1 0-155.2-38.72 738.24 738.24 0 0 0 0 321.92 80 80 0 0 0 58.24 58.24 738.24 738.24 0 0 0 321.92 0 80 80 0 1 0-38.72-155.2 546.56 546.56 0 0 1-64 9.92l150.72-176.32a75.2 75.2 0 0 0-0.32-99.2z m496-446.08a80 80 0 0 0-58.24-58.24 738.24 738.24 0 0 0-321.92 0 80 80 0 1 0 38.72 155.2 546.56 546.56 0 0 1 64-9.92l-150.72 176.32a75.2 75.2 0 0 0 106.24 106.24l177.28-151.36a437.12 437.12 0 0 1-10.88 64 80 80 0 1 0 155.2 38.72 738.24 738.24 0 0 0 0.32-320.96z" fill="#currentColor" p-id="10960"></path></svg>